<?xml version="1.0" standalone="no"?>
<svg xmlns="http://www.w3.org/2000/svg" xmlns:xlink="http://www.w3.org/1999/xlink" width="1090pt" height="1569pt" viewBox="0.00 0.00 1090.00 1569.00">
<g id="graph0" class="graph" transform="translate(57.83559086834407,1412.456794480727) scale(0.8705505632961241)" data-name="test1.c.319r.alignments">

<polygon fill="white" stroke="none" points="-4,4 -4,-1565 1086,-1565 1086,4 -4,4" style=""/>
<g id="clust1" class="cluster" data-name="cluster_add">

<polygon fill="none" stroke="black" stroke-dasharray="5,2" points="8,-498.1 8,-1553 348,-1553 348,-498.1 8,-498.1" style=""/>
<text text-anchor="middle" x="178" y="-1536.4" font-family="Times,serif" font-size="14.00" style="">add ()</text>
</g>
<g id="clust2" class="cluster" data-name="cluster_main">

<polygon fill="none" stroke="black" stroke-dasharray="5,2" points="356,-8 356,-1553 1074,-1553 1074,-8 356,-8" style=""/>
<text text-anchor="middle" x="715" y="-1536.4" font-family="Times,serif" font-size="14.00" style="">main ()</text>
</g>
<!-- fn_0_basic_block_0 -->
<g id="node1" class="node" pointer-events="visible" data-name="fn_0_basic_block_0">

<polygon fill="white" stroke="black" points="168,-1520.2 106.75,-1502.2 168,-1484.2 229.25,-1502.2 168,-1520.2" style=""/>
<polyline fill="none" stroke="black" points="118.26,-1505.58 118.26,-1498.82" style=""/>
<polyline fill="none" stroke="black" points="156.49,-1487.58 179.51,-1487.58" style=""/>
<polyline fill="none" stroke="black" points="217.74,-1498.82 217.74,-1505.58" style=""/>
<polyline fill="none" stroke="black" points="179.51,-1516.82 156.49,-1516.82" style=""/>
<text text-anchor="middle" x="168" y="-1498" font-family="Times,serif" font-size="14.00" style="">ENTRY</text>
</g>
<!-- fn_0_basic_block_2 -->
<g id="node2" class="node" pointer-events="visible" data-name="fn_0_basic_block_2">

<polygon fill="lightgrey" stroke="black" points="16.29,-821.9 16.29,-1252.3 319.71,-1252.3 319.71,-821.9 16.29,-821.9" style=""/>
<text text-anchor="start" x="24.29" y="-1235.7" font-family="Times,serif" font-size="14.00" style="">5: NOTE_INSN_BASIC_BLOCK 2</text>
<polyline fill="none" stroke="black" points="16.29,-1227.5 319.71,-1227.5" style=""/>
<text text-anchor="start" x="24.29" y="-1210.9" font-family="Times,serif" font-size="14.00" style="">20: [--sp:DI]=bp:DI</text>
<polyline fill="none" stroke="black" points="16.29,-1202.7 319.71,-1202.7" style=""/>
<text text-anchor="start" x="24.29" y="-1186.1" font-family="Times,serif" font-size="14.00" style="">21: bp:DI=sp:DI</text>
<polyline fill="none" stroke="black" points="16.29,-1177.9 319.71,-1177.9" style=""/>
<text text-anchor="start" x="24.29" y="-1161.3" font-family="Times,serif" font-size="14.00" style="">22: [scratch]=unspec[[scratch]] 17</text>
<polyline fill="none" stroke="black" points="16.29,-1153.1 319.71,-1153.1" style=""/>
<text text-anchor="start" x="24.29" y="-1136.5" font-family="Times,serif" font-size="14.00" style="">23: NOTE_INSN_PROLOGUE_END</text>
<polyline fill="none" stroke="black" points="16.29,-1128.3 319.71,-1128.3" style=""/>
<text text-anchor="start" x="24.29" y="-1111.7" font-family="Times,serif" font-size="14.00" style="">2: [bp:DI-0x4]=di:SI</text>
<polyline fill="none" stroke="black" points="16.29,-1103.5 319.71,-1103.5" style=""/>
<text text-anchor="start" x="24.29" y="-1086.9" font-family="Times,serif" font-size="14.00" style="">3: [bp:DI-0x8]=si:SI</text>
<polyline fill="none" stroke="black" points="16.29,-1078.7 319.71,-1078.7" style=""/>
<text text-anchor="start" x="24.29" y="-1062.1" font-family="Times,serif" font-size="14.00" style="">4: NOTE_INSN_FUNCTION_BEG</text>
<polyline fill="none" stroke="black" points="16.29,-1053.9 319.71,-1053.9" style=""/>
<text text-anchor="start" x="24.29" y="-1037.3" font-family="Times,serif" font-size="14.00" style="">7: dx:SI=[bp:DI-0x4]</text>
<polyline fill="none" stroke="black" points="16.29,-1029.1 319.71,-1029.1" style=""/>
<text text-anchor="start" x="24.29" y="-1012.5" font-family="Times,serif" font-size="14.00" style="">8: ax:SI=[bp:DI-0x8]</text>
<polyline fill="none" stroke="black" points="16.29,-1004.3 319.71,-1004.3" style=""/>
<text text-anchor="start" x="24.29" y="-987.7" font-family="Times,serif" font-size="14.00" style="">9: {ax:SI=ax:SI+dx:SI;clobber flags:CC;}</text>
<text text-anchor="start" x="24.29" y="-970.9" font-family="Times,serif" font-size="14.00" style="">      REG_EQUAL [frame:DI-0x4]+[frame:DI-0x8]</text>
<polyline fill="none" stroke="black" points="16.29,-962.7 319.71,-962.7" style=""/>
<text text-anchor="start" x="24.29" y="-946.1" font-family="Times,serif" font-size="14.00" style="">17: use ax:SI</text>
<polyline fill="none" stroke="black" points="16.29,-937.9 319.71,-937.9" style=""/>
<text text-anchor="start" x="24.29" y="-921.3" font-family="Times,serif" font-size="14.00" style="">24: NOTE_INSN_EPILOGUE_BEG</text>
<polyline fill="none" stroke="black" points="16.29,-913.1 319.71,-913.1" style=""/>
<text text-anchor="start" x="24.29" y="-896.5" font-family="Times,serif" font-size="14.00" style="">25: [scratch]=unspec[[scratch]] 17</text>
<polyline fill="none" stroke="black" points="16.29,-888.3 319.71,-888.3" style=""/>
<text text-anchor="start" x="24.29" y="-871.7" font-family="Times,serif" font-size="14.00" style="">26: bp:DI=[sp:DI++]</text>
<text text-anchor="start" x="24.29" y="-854.9" font-family="Times,serif" font-size="14.00" style="">      REG_CFA_DEF_CFA sp:DI+0x8</text>
<polyline fill="none" stroke="black" points="16.29,-846.7 319.71,-846.7" style=""/>
<text text-anchor="start" x="24.29" y="-830.1" font-family="Times,serif" font-size="14.00" style="">27: simple_return</text>
</g>
<!-- fn_0_basic_block_0&#45;&gt;fn_0_basic_block_2 -->
<g id="edge1" class="edge" data-name="fn_0_basic_block_0-&gt;fn_0_basic_block_2">

<path fill="none" stroke="blue" stroke-width="2" d="M168,-1484.2C168,-1385.4 168,-1357.88 168,-1264.51" style=""/>
<polygon fill="blue" stroke="blue" stroke-width="2" points="171.5,-1266.13 168,-1256.13 164.5,-1266.13 171.5,-1266.13" style=""/>
</g>
<!-- fn_0_basic_block_1 -->
<g id="node3" class="node" pointer-events="visible" data-name="fn_0_basic_block_1">

<polygon fill="white" stroke="black" points="168,-542.1 121.09,-524.1 168,-506.1 214.91,-524.1 168,-542.1" style=""/>
<polyline fill="none" stroke="black" points="132.3,-528.4 132.3,-519.8" style=""/>
<polyline fill="none" stroke="black" points="156.8,-510.4 179.2,-510.4" style=""/>
<polyline fill="none" stroke="black" points="203.7,-519.8 203.7,-528.4" style=""/>
<polyline fill="none" stroke="black" points="179.2,-537.8 156.8,-537.8" style=""/>
<text text-anchor="middle" x="168" y="-519.9" font-family="Times,serif" font-size="14.00" style="">EXIT</text>
</g>
<!-- fn_0_basic_block_0&#45;&gt;fn_0_basic_block_1 -->
<!-- fn_0_basic_block_2&#45;&gt;fn_0_basic_block_1 -->
<g id="edge2" class="edge" data-name="fn_0_basic_block_2-&gt;fn_0_basic_block_1">

<path fill="none" stroke="black" stroke-width="2" d="M168,-821.1C168,-701.41 168,-668.68 168,-554.42" style=""/>
<polygon fill="black" stroke="black" stroke-width="2" points="171.5,-556.13 168,-546.13 164.5,-556.13 171.5,-556.13" style=""/>
<text text-anchor="middle" x="188.99" y="-596.4" font-family="Times,serif" font-size="14.00" style="">[100%]</text>
</g>
<!-- fn_1_basic_block_0 -->
<g id="node4" class="node" pointer-events="visible" data-name="fn_1_basic_block_0">

<polygon fill="white" stroke="black" points="541,-1520.2 479.75,-1502.2 541,-1484.2 602.25,-1502.2 541,-1520.2" style=""/>
<polyline fill="none" stroke="black" points="491.26,-1505.58 491.26,-1498.82" style=""/>
<polyline fill="none" stroke="black" points="529.49,-1487.58 552.51,-1487.58" style=""/>
<polyline fill="none" stroke="black" points="590.74,-1498.82 590.74,-1505.58" style=""/>
<polyline fill="none" stroke="black" points="552.51,-1516.82 529.49,-1516.82" style=""/>
<text text-anchor="middle" x="541" y="-1498" font-family="Times,serif" font-size="14.00" style="">ENTRY</text>
</g>
<!-- fn_1_basic_block_2 -->
<g id="node5" class="node" pointer-events="visible" data-name="fn_1_basic_block_2">

<polygon fill="lightgrey" stroke="black" points="363.51,-627.5 363.51,-1446.7 718.49,-1446.7 718.49,-627.5 363.51,-627.5" style=""/>
<text text-anchor="start" x="371.51" y="-1430.1" font-family="Times,serif" font-size="14.00" style="">3: NOTE_INSN_BASIC_BLOCK 2</text>
<polyline fill="none" stroke="black" points="363.51,-1421.9 718.49,-1421.9" style=""/>
<text text-anchor="start" x="371.51" y="-1405.3" font-family="Times,serif" font-size="14.00" style="">67: [--sp:DI]=bp:DI</text>
<polyline fill="none" stroke="black" points="363.51,-1397.1 718.49,-1397.1" style=""/>
<text text-anchor="start" x="371.51" y="-1380.5" font-family="Times,serif" font-size="14.00" style="">68: bp:DI=sp:DI</text>
<polyline fill="none" stroke="black" points="363.51,-1372.3 718.49,-1372.3" style=""/>
<text text-anchor="start" x="371.51" y="-1355.7" font-family="Times,serif" font-size="14.00" style="">69: {sp:DI=sp:DI-0x10;clobber flags:CC;clobber [scratch];}</text>
<polyline fill="none" stroke="black" points="363.51,-1347.5 718.49,-1347.5" style=""/>
<text text-anchor="start" x="371.51" y="-1330.9" font-family="Times,serif" font-size="14.00" style="">70: NOTE_INSN_PROLOGUE_END</text>
<polyline fill="none" stroke="black" points="363.51,-1322.7 718.49,-1322.7" style=""/>
<text text-anchor="start" x="371.51" y="-1306.1" font-family="Times,serif" font-size="14.00" style="">2: NOTE_INSN_FUNCTION_BEG</text>
<polyline fill="none" stroke="black" points="363.51,-1297.9 718.49,-1297.9" style=""/>
<text text-anchor="start" x="371.51" y="-1281.3" font-family="Times,serif" font-size="14.00" style="">5: ax:DI=`*.LC0'</text>
<polyline fill="none" stroke="black" points="363.51,-1273.1 718.49,-1273.1" style=""/>
<text text-anchor="start" x="371.51" y="-1256.5" font-family="Times,serif" font-size="14.00" style="">6: di:DI=ax:DI</text>
<text text-anchor="start" x="371.51" y="-1239.7" font-family="Times,serif" font-size="14.00" style="">      REG_EQUAL `*.LC0'</text>
<polyline fill="none" stroke="black" points="363.51,-1231.5 718.49,-1231.5" style=""/>
<text text-anchor="start" x="371.51" y="-1214.9" font-family="Times,serif" font-size="14.00" style="">7: ax:SI=call [`puts'] argc:0</text>
<polyline fill="none" stroke="black" points="363.51,-1206.7 718.49,-1206.7" style=""/>
<text text-anchor="start" x="371.51" y="-1190.1" font-family="Times,serif" font-size="14.00" style="">8: [bp:DI-0x8]=0x3</text>
<polyline fill="none" stroke="black" points="363.51,-1181.9 718.49,-1181.9" style=""/>
<text text-anchor="start" x="371.51" y="-1165.3" font-family="Times,serif" font-size="14.00" style="">9: ax:SI=[bp:DI-0x8]</text>
<polyline fill="none" stroke="black" points="363.51,-1157.1 718.49,-1157.1" style=""/>
<text text-anchor="start" x="371.51" y="-1140.5" font-family="Times,serif" font-size="14.00" style="">10: {ax:SI=ax:SI*ax:SI;clobber flags:CC;}</text>
<polyline fill="none" stroke="black" points="363.51,-1132.3 718.49,-1132.3" style=""/>
<text text-anchor="start" x="371.51" y="-1115.7" font-family="Times,serif" font-size="14.00" style="">66: dx:SI=ax:SI</text>
<polyline fill="none" stroke="black" points="363.51,-1107.5 718.49,-1107.5" style=""/>
<text text-anchor="start" x="371.51" y="-1090.9" font-family="Times,serif" font-size="14.00" style="">11: ax:SI=[bp:DI-0x8]</text>
<polyline fill="none" stroke="black" points="363.51,-1082.7 718.49,-1082.7" style=""/>
<text text-anchor="start" x="371.51" y="-1066.1" font-family="Times,serif" font-size="14.00" style="">13: si:SI=ax:SI</text>
<polyline fill="none" stroke="black" points="363.51,-1057.9 718.49,-1057.9" style=""/>
<text text-anchor="start" x="371.51" y="-1041.3" font-family="Times,serif" font-size="14.00" style="">14: ax:DI=`*.LC1'</text>
<polyline fill="none" stroke="black" points="363.51,-1033.1 718.49,-1033.1" style=""/>
<text text-anchor="start" x="371.51" y="-1016.5" font-family="Times,serif" font-size="14.00" style="">15: di:DI=ax:DI</text>
<text text-anchor="start" x="371.51" y="-999.7" font-family="Times,serif" font-size="14.00" style="">      REG_EQUAL `*.LC1'</text>
<polyline fill="none" stroke="black" points="363.51,-991.5 718.49,-991.5" style=""/>
<text text-anchor="start" x="371.51" y="-974.9" font-family="Times,serif" font-size="14.00" style="">16: ax:QI=0</text>
<polyline fill="none" stroke="black" points="363.51,-966.7 718.49,-966.7" style=""/>
<text text-anchor="start" x="371.51" y="-950.1" font-family="Times,serif" font-size="14.00" style="">17: ax:SI=call [`printf'] argc:0</text>
<polyline fill="none" stroke="black" points="363.51,-941.9 718.49,-941.9" style=""/>
<text text-anchor="start" x="371.51" y="-925.3" font-family="Times,serif" font-size="14.00" style="">18: si:SI=0x7</text>
<polyline fill="none" stroke="black" points="363.51,-917.1 718.49,-917.1" style=""/>
<text text-anchor="start" x="371.51" y="-900.5" font-family="Times,serif" font-size="14.00" style="">19: di:SI=0x5</text>
<polyline fill="none" stroke="black" points="363.51,-892.3 718.49,-892.3" style=""/>
<text text-anchor="start" x="371.51" y="-875.7" font-family="Times,serif" font-size="14.00" style="">20: ax:SI=call [`add'] argc:0</text>
<polyline fill="none" stroke="black" points="363.51,-867.5 718.49,-867.5" style=""/>
<text text-anchor="start" x="371.51" y="-850.9" font-family="Times,serif" font-size="14.00" style="">22: [bp:DI-0x4]=ax:SI</text>
<polyline fill="none" stroke="black" points="363.51,-842.7 718.49,-842.7" style=""/>
<text text-anchor="start" x="371.51" y="-826.1" font-family="Times,serif" font-size="14.00" style="">23: ax:SI=[bp:DI-0x4]</text>
<polyline fill="none" stroke="black" points="363.51,-817.9 718.49,-817.9" style=""/>
<text text-anchor="start" x="371.51" y="-801.3" font-family="Times,serif" font-size="14.00" style="">24: si:SI=ax:SI</text>
<polyline fill="none" stroke="black" points="363.51,-793.1 718.49,-793.1" style=""/>
<text text-anchor="start" x="371.51" y="-776.5" font-family="Times,serif" font-size="14.00" style="">25: ax:DI=`*.LC2'</text>
<polyline fill="none" stroke="black" points="363.51,-768.3 718.49,-768.3" style=""/>
<text text-anchor="start" x="371.51" y="-751.7" font-family="Times,serif" font-size="14.00" style="">26: di:DI=ax:DI</text>
<text text-anchor="start" x="371.51" y="-734.9" font-family="Times,serif" font-size="14.00" style="">      REG_EQUAL `*.LC2'</text>
<polyline fill="none" stroke="black" points="363.51,-726.7 718.49,-726.7" style=""/>
<text text-anchor="start" x="371.51" y="-710.1" font-family="Times,serif" font-size="14.00" style="">27: ax:QI=0</text>
<polyline fill="none" stroke="black" points="363.51,-701.9 718.49,-701.9" style=""/>
<text text-anchor="start" x="371.51" y="-685.3" font-family="Times,serif" font-size="14.00" style="">28: ax:SI=call [`printf'] argc:0</text>
<polyline fill="none" stroke="black" points="363.51,-677.1 718.49,-677.1" style=""/>
<text text-anchor="start" x="371.51" y="-660.5" font-family="Times,serif" font-size="14.00" style="">29: [bp:DI-0xc]=0</text>
<polyline fill="none" stroke="black" points="363.51,-652.3 718.49,-652.3" style=""/>
<text text-anchor="start" x="371.51" y="-635.7" font-family="Times,serif" font-size="14.00" style="">62: pc=L38</text>
</g>
<!-- fn_1_basic_block_0&#45;&gt;fn_1_basic_block_2 -->
<g id="edge4" class="edge" data-name="fn_1_basic_block_0-&gt;fn_1_basic_block_2">

<path fill="none" stroke="blue" stroke-width="2" d="M541,-1484.2C541,-1472.38 541,-1466.93 541,-1458.7" style=""/>
<polygon fill="blue" stroke="blue" stroke-width="2" points="544.5,-1460.23 541,-1450.23 537.5,-1460.23 544.5,-1460.23" style=""/>
</g>
<!-- fn_1_basic_block_1 -->
<g id="node9" class="node" pointer-events="visible" data-name="fn_1_basic_block_1">

<polygon fill="white" stroke="black" points="534,-52 487.09,-34 534,-16 580.91,-34 534,-52" style=""/>
<polyline fill="none" stroke="black" points="498.3,-38.3 498.3,-29.7" style=""/>
<polyline fill="none" stroke="black" points="522.8,-20.3 545.2,-20.3" style=""/>
<polyline fill="none" stroke="black" points="569.7,-29.7 569.7,-38.3" style=""/>
<polyline fill="none" stroke="black" points="545.2,-47.7 522.8,-47.7" style=""/>
<text text-anchor="middle" x="534" y="-29.8" font-family="Times,serif" font-size="14.00" style="">EXIT</text>
</g>
<!-- fn_1_basic_block_0&#45;&gt;fn_1_basic_block_1 -->
<!-- fn_1_basic_block_4 -->
<g id="node6" class="node" pointer-events="visible" data-name="fn_1_basic_block_4">

<polygon fill="lightgrey" stroke="black" points="414.35,-474.5 414.35,-573.7 653.65,-573.7 653.65,-474.5 414.35,-474.5" style=""/>
<text text-anchor="start" x="422.35" y="-557.1" font-family="Times,serif" font-size="14.00" style="">38: L38:</text>
<polyline fill="none" stroke="black" points="414.35,-548.9 653.65,-548.9" style=""/>
<text text-anchor="start" x="422.35" y="-532.3" font-family="Times,serif" font-size="14.00" style="">39: NOTE_INSN_BASIC_BLOCK 4</text>
<polyline fill="none" stroke="black" points="414.35,-524.1 653.65,-524.1" style=""/>
<text text-anchor="start" x="422.35" y="-507.5" font-family="Times,serif" font-size="14.00" style="">43: flags:CCGC=cmp([bp:DI-0xc],0x4)</text>
<polyline fill="none" stroke="black" points="414.35,-499.3 653.65,-499.3" style=""/>
<text text-anchor="start" x="422.35" y="-482.7" font-family="Times,serif" font-size="14.00" style="">44: pc={(flags:CCGC&lt;=0)?L40:pc}</text>
</g>
<!-- fn_1_basic_block_2&#45;&gt;fn_1_basic_block_4 -->
<g id="edge5" class="edge" data-name="fn_1_basic_block_2-&gt;fn_1_basic_block_4">

<path fill="none" stroke="black" stroke-width="2" d="M541,-627C541,-607.58 536.29,-600.42 534.6,-585.41" style=""/>
<polygon fill="black" stroke="black" stroke-width="2" points="538.19,-587.02 534.16,-577.22 531.2,-587.39 538.19,-587.02" style=""/>
<text text-anchor="middle" x="559.99" y="-596.4" font-family="Times,serif" font-size="14.00" style="">[100%]</text>
</g>
<!-- fn_1_basic_block_5 -->
<g id="node7" class="node" pointer-events="visible" data-name="fn_1_basic_block_5">

<polygon fill="lightgrey" stroke="black" points="363.97,-105.3 363.97,-436.5 704.03,-436.5 704.03,-105.3 363.97,-105.3" style=""/>
<text text-anchor="start" x="371.97" y="-419.9" font-family="Times,serif" font-size="14.00" style="">45: NOTE_INSN_BASIC_BLOCK 5</text>
<polyline fill="none" stroke="black" points="363.97,-411.7 704.03,-411.7" style=""/>
<text text-anchor="start" x="371.97" y="-395.1" font-family="Times,serif" font-size="14.00" style="">46: ax:SI=[`counter']</text>
<polyline fill="none" stroke="black" points="363.97,-386.9 704.03,-386.9" style=""/>
<text text-anchor="start" x="371.97" y="-370.3" font-family="Times,serif" font-size="14.00" style="">47: si:SI=ax:SI</text>
<polyline fill="none" stroke="black" points="363.97,-362.1 704.03,-362.1" style=""/>
<text text-anchor="start" x="371.97" y="-345.5" font-family="Times,serif" font-size="14.00" style="">48: ax:DI=`*.LC3'</text>
<polyline fill="none" stroke="black" points="363.97,-337.3 704.03,-337.3" style=""/>
<text text-anchor="start" x="371.97" y="-320.7" font-family="Times,serif" font-size="14.00" style="">49: di:DI=ax:DI</text>
<text text-anchor="start" x="371.97" y="-303.9" font-family="Times,serif" font-size="14.00" style="">      REG_EQUAL `*.LC3'</text>
<polyline fill="none" stroke="black" points="363.97,-295.7 704.03,-295.7" style=""/>
<text text-anchor="start" x="371.97" y="-279.1" font-family="Times,serif" font-size="14.00" style="">50: ax:QI=0</text>
<polyline fill="none" stroke="black" points="363.97,-270.9 704.03,-270.9" style=""/>
<text text-anchor="start" x="371.97" y="-254.3" font-family="Times,serif" font-size="14.00" style="">51: ax:SI=call [`printf'] argc:0</text>
<polyline fill="none" stroke="black" points="363.97,-246.1 704.03,-246.1" style=""/>
<text text-anchor="start" x="371.97" y="-229.5" font-family="Times,serif" font-size="14.00" style="">52: ax:SI=0</text>
<polyline fill="none" stroke="black" points="363.97,-221.3 704.03,-221.3" style=""/>
<text text-anchor="start" x="371.97" y="-204.7" font-family="Times,serif" font-size="14.00" style="">60: use ax:SI</text>
<polyline fill="none" stroke="black" points="363.97,-196.5 704.03,-196.5" style=""/>
<text text-anchor="start" x="371.97" y="-179.9" font-family="Times,serif" font-size="14.00" style="">71: NOTE_INSN_EPILOGUE_BEG</text>
<polyline fill="none" stroke="black" points="363.97,-171.7 704.03,-171.7" style=""/>
<text text-anchor="start" x="371.97" y="-155.1" font-family="Times,serif" font-size="14.00" style="">72: {sp:DI=bp:DI+0x8;bp:DI=[bp:DI];clobber [scratch];}</text>
<text text-anchor="start" x="371.97" y="-138.3" font-family="Times,serif" font-size="14.00" style="">      REG_CFA_DEF_CFA sp:DI+0x8</text>
<polyline fill="none" stroke="black" points="363.97,-130.1 704.03,-130.1" style=""/>
<text text-anchor="start" x="371.97" y="-113.5" font-family="Times,serif" font-size="14.00" style="">73: simple_return</text>
</g>
<!-- fn_1_basic_block_4&#45;&gt;fn_1_basic_block_5 -->
<g id="edge8" class="edge" data-name="fn_1_basic_block_4-&gt;fn_1_basic_block_5">

<path fill="none" stroke="blue" stroke-width="2" d="M534,-474C534,-462.18 534,-456.73 534,-448.5" style=""/>
<polygon fill="blue" stroke="blue" stroke-width="2" points="537.5,-450.03 534,-440.03 530.5,-450.03 537.5,-450.03" style=""/>
</g>
<!-- fn_1_basic_block_3 -->
<g id="node8" class="node" pointer-events="visible" data-name="fn_1_basic_block_3">

<polygon fill="lightgrey" stroke="black" points="721.81,-175.7 721.81,-366.1 1046.19,-366.1 1046.19,-175.7 721.81,-175.7" style=""/>
<text text-anchor="start" x="729.81" y="-349.5" font-family="Times,serif" font-size="14.00" style="">40: L40:</text>
<polyline fill="none" stroke="black" points="721.81,-341.3 1046.19,-341.3" style=""/>
<text text-anchor="start" x="729.81" y="-324.7" font-family="Times,serif" font-size="14.00" style="">32: NOTE_INSN_BASIC_BLOCK 3</text>
<polyline fill="none" stroke="black" points="721.81,-316.5 1046.19,-316.5" style=""/>
<text text-anchor="start" x="729.81" y="-299.9" font-family="Times,serif" font-size="14.00" style="">33: dx:SI=[`counter']</text>
<polyline fill="none" stroke="black" points="721.81,-291.7 1046.19,-291.7" style=""/>
<text text-anchor="start" x="729.81" y="-275.1" font-family="Times,serif" font-size="14.00" style="">34: ax:SI=[bp:DI-0xc]</text>
<polyline fill="none" stroke="black" points="721.81,-266.9 1046.19,-266.9" style=""/>
<text text-anchor="start" x="729.81" y="-250.3" font-family="Times,serif" font-size="14.00" style="">35: {ax:SI=ax:SI+dx:SI;clobber flags:CC;}</text>
<text text-anchor="start" x="729.81" y="-233.5" font-family="Times,serif" font-size="14.00" style="">      REG_EQUAL dx:SI+[frame:DI-0xc]</text>
<polyline fill="none" stroke="black" points="721.81,-225.3 1046.19,-225.3" style=""/>
<text text-anchor="start" x="729.81" y="-208.7" font-family="Times,serif" font-size="14.00" style="">36: [`counter']=ax:SI</text>
<polyline fill="none" stroke="black" points="721.81,-200.5 1046.19,-200.5" style=""/>
<text text-anchor="start" x="729.81" y="-183.9" font-family="Times,serif" font-size="14.00" style="">37: {[bp:DI-0xc]=[bp:DI-0xc]+0x1;clobber flags:CC;}</text>
</g>
<!-- fn_1_basic_block_4&#45;&gt;fn_1_basic_block_3 -->
<g id="edge7" class="edge" data-name="fn_1_basic_block_4-&gt;fn_1_basic_block_3">

<path fill="none" stroke="black" stroke-width="2" d="M534,-474C534,-433.38 674.15,-448.87 713,-437 787.72,-414.18 875.01,-445.66 883.35,-378.11" style=""/>
<polygon fill="black" stroke="black" stroke-width="2" points="886.74,-380.11 883.83,-369.92 879.75,-379.7 886.74,-380.11" style=""/>
</g>
<!-- fn_1_basic_block_5&#45;&gt;fn_1_basic_block_1 -->
<g id="edge9" class="edge" data-name="fn_1_basic_block_5-&gt;fn_1_basic_block_1">

<path fill="none" stroke="black" stroke-width="2" d="M534,-104.8C534,-85.55 534,-78.14 534,-63.15" style=""/>
<polygon fill="black" stroke="black" stroke-width="2" points="537.5,-65.03 534,-55.03 530.5,-65.03 537.5,-65.03" style=""/>
<text text-anchor="middle" x="554.99" y="-74.2" font-family="Times,serif" font-size="14.00" style="">[100%]</text>
</g>
<!-- fn_1_basic_block_3&#45;&gt;fn_1_basic_block_4 -->
<g id="edge6" class="edge" data-name="fn_1_basic_block_3-&gt;fn_1_basic_block_4">

<path fill="none" stroke="blue" stroke-width="2" stroke-dasharray="1,5" d="M884,-174.9C884,-165.89 1039.84,-169.51 1046.19,-175.9 1061.13,-190.93 1057.13,-348.45 1046.19,-366.6 944.35,-535.63 844.98,-525.79 653.65,-574.1 643.18,-576.74 570.74,-584.53 543.94,-580.22" style=""/>
<polygon fill="blue" stroke="blue" stroke-width="2" points="547.18,-577.96 536.69,-576.49 543.97,-584.18 547.18,-577.96" style=""/>
</g>
</g>
</svg>